<svg width="512" height="512" viewBox="0 0 512 512" fill="none" xmlns="http://www.w3.org/2000/svg">
  <rect width="512" height="512" rx="128" fill="#03050D"/>
  <circle cx="256" cy="256" r="232" fill="url(#halo)"/>
  <circle cx="256" cy="238" r="76" fill="#10131A" stroke="#7CB6FF" stroke-width="15"/>
  <path d="M256 164V312M182 238H330M205 187L307 289M307 187L205 289" stroke="#F5C966" stroke-width="7" stroke-linecap="round"/>
  <path d="M256 184L280 230L330 238L280 246L256 292L232 246L182 238L232 230L256 184Z" fill="#F8E9C6"/>
  <path d="M256 216L268 236L290 238L268 241L256 262L244 241L222 238L244 236L256 216Z" fill="#03050D"/>
  <path d="M176 384H336" stroke="#F8E9C6" stroke-width="22" stroke-linecap="round"/>
  <path d="M198 356H314" stroke="#F1B64F" stroke-width="19" stroke-linecap="round"/>
  <path d="M214 356V320M256 356V320M298 356V320" stroke="#F8E9C6" stroke-width="16" stroke-linecap="round"/>
  <path d="M198 320H314L256 288L198 320Z" fill="#F8E9C6"/>
  <path d="M226 327H286" stroke="#03050D" stroke-width="9" stroke-linecap="round" opacity="0.72"/>
  <defs>
    <radialGradient id="halo" cx="0" cy="0" r="1" gradientUnits="userSpaceOnUse" gradientTransform="translate(256 218) rotate(90) scale(270)">
      <stop stop-color="#F5C966" stop-opacity="0.38"/>
      <stop offset="0.52" stop-color="#7CB6FF" stop-opacity="0.2"/>
      <stop offset="1" stop-color="#03050D" stop-opacity="0"/>
    </radialGradient>
  </defs>
</svg>
